<?xml version="1.0" encoding="UTF-8"?>
<svg width="640" height="640" viewBox="0 0 640 640" fill="none" xmlns="http://www.w3.org/2000/svg">
  <rect width="640" height="640" fill="#333333"/>
  <path fill-rule="evenodd" clip-rule="evenodd" d="M320 128C331.046 128 340 136.954 340 148V371.416C350.581 366.416 362.685 363.52 375.52 363.52C413.094 363.52 443.52 387.664 443.52 417.52C443.52 447.376 413.094 471.52 375.52 471.52C337.946 471.52 307.52 447.376 307.52 417.52V211.194L215.52 234.483V402.195C226.101 397.195 238.205 394.299 251.04 394.299C288.614 394.299 319.04 418.443 319.04 448.299C319.04 478.155 288.614 502.299 251.04 502.299C213.466 502.299 183.04 478.155 183.04 448.299V212C183.04 201.68 189.946 192.848 199.839 190.9L307.839 165.678C308.872 165.445 309.979 165.25 311.16 165.08C311.44 165.037 311.722 164.996 312.006 164.958C312.292 164.919 312.58 164.884 312.87 164.851C312.899 164.848 312.929 164.845 312.959 164.842C314.651 164.623 316.304 164.51 317.909 164.514C317.946 164.514 317.983 164.514 318.02 164.514C318.682 164.514 319.343 164.536 320 164.582V148C320 136.954 328.954 128 340 128H320Z" fill="#d02b31"/>
  <text x="320" y="570" font-family="Arial, sans-serif" font-size="28" fill="white" text-anchor="middle">Songfuse</text>
</svg>