<?xml version="1.0" encoding="UTF-8"?>
<svg xmlns="http://www.w3.org/2000/svg" xmlns:xlink="http://www.w3.org/1999/xlink" version="1.1" viewBox="0 0 185.2 71.7">
  <defs>
    <style>
      .cls-1 {
        fill: #cd2026;
        isolation: isolate;
        opacity: .9;
      }

      .cls-2 {
        fill: url(#linear-gradient);
      }

      .cls-3 {
        fill: #fff;
      }
    </style>
    <linearGradient id="linear-gradient" x1="183" y1="-4.4" x2="183.1" y2="41.9" gradientTransform="translate(-1 58.1) rotate(-5) scale(1 -1) skewX(5)" gradientUnits="userSpaceOnUse">
      <stop offset="0" stop-color="#231f20" stop-opacity="0"/>
      <stop offset=".4" stop-color="#231f20" stop-opacity="0"/>
      <stop offset=".7" stop-color="#231f20" stop-opacity=".4"/>
      <stop offset="1" stop-color="#231f20" stop-opacity=".9"/>
      <stop offset="1" stop-color="#231f20" stop-opacity=".9"/>
    </linearGradient>
  </defs>
  <!-- Generator: Adobe Illustrator 28.6.0, SVG Export Plug-In . SVG Version: 1.2.0 Build 709)  -->
  <g>
    <g id="Layer_2">
      <g id="Layer_1-2">
        <path class="cls-3" d="M12.9,31.6v-6.5c0-1.6-.8-2.4-2.1-2.3-1.4.1-2.1,1.1-2.1,2.4v4.9c0,3.1.2,3.9,1.8,5.5,2.9,3.1,6.7,5.4,8.8,8,1.6,2,2.4,4.2,2.4,8.7v7.5c0,7.1-3.3,11.2-10.9,11.8S0,68.8,0,61.6v-6.2l8.1-.7v6.9c0,1.5.8,2.4,2.4,2.2s2.2-1.1,2.2-2.6v-6.2c0-4.1-.6-5.1-2.3-6.8-2.7-2.7-5.9-5-7.8-8.2-1.5-2.5-2.3-5-2.3-9.7v-4.7c0-6.3,3.6-10.2,10.4-10.8,7.6-.7,10.3,3.6,10.3,10.5v5.5l-8,.7h0Z"/>
        <path class="cls-3" d="M44.5,57.7c0,7.3-3.7,11.3-10.3,11.8s-10.5-3.1-10.5-10.1V25c0-7.1,3.8-11.5,10.4-12.1s10.4,3.3,10.4,10.5v34.4h0ZM36,23.2c0-1.7-.7-2.5-1.9-2.4s-1.8,1-1.8,2.7v35.9c0,1.7.6,2.5,1.8,2.4s1.9-1,1.9-2.7V23.2Z"/>
        <path class="cls-3" d="M59,67l-4.9-38.4h-.3c.2,4.2.3,9.2.3,20.9v17.9l-7.3.6V12.1l11.4-1,3.5,35.7h.3c-.2-5.3-.3-10.4-.3-23.5v-12.5l7.4-.6v55.9l-10,.9h0Z"/>
        <path class="cls-3" d="M86.4,64.6l-.3-2.2h-.3c-.8,1.4-1.9,2.8-5.1,3.1-5.6.5-9-3.3-9-10.2V20.8c0-7.1,3.5-11.5,10.1-12.1s10.2,3.3,10.2,10.5v6.2l-8,.7v-7.2c0-1.7-.7-2.5-1.9-2.4s-1.8,1-1.8,2.7v35.9c0,1.7.6,2.5,1.8,2.4s1.9-1,1.9-2.7v-11.3l-2.4.2v-7.6l10.4-.9v28.8l-5.5.5h0Z"/>
        <path class="cls-3" d="M93.9,63.9V8l16.2-1.4v7.7l-7.6.7v15.8l6.2-.5v7.7l-6.2.5v24.8l-8.6.8h0Z"/>
        <path class="cls-3" d="M124.2,5.3l8.5-.7v45.3c0,7.1-3.5,11.4-10.3,11.9s-10.4-2.7-10.4-10V6.4l8.3-.7v46c0,1.7.7,2.5,1.9,2.4s1.8-1,1.8-2.7c0,0,0-46,0-46Z"/>
        <path class="cls-3" d="M148,19.8v-6.5c0-1.6-.8-2.4-2.1-2.3-1.4.1-2.1,1.1-2.1,2.4v4.9c0,3.1.2,3.9,1.8,5.5,2.9,3.1,6.7,5.4,8.8,8,1.6,2,2.4,4.2,2.4,8.7v7.5c0,7.1-3.3,11.1-10.9,11.8s-10.8-2.8-10.8-10v-6.2l8.1-.7v6.9c0,1.5.8,2.4,2.4,2.2s2.2-1.1,2.2-2.6v-6.2c0-4.1-.6-5.1-2.3-6.8-2.7-2.7-5.9-5-7.8-8.2-1.5-2.5-2.3-5-2.3-9.7v-4.7c0-6.3,3.6-10.2,10.4-10.8,7.6-.7,10.3,3.6,10.3,10.5v5.5l-8,.7h0Z"/>
        <path class="cls-3" d="M159.1,58.2V2.3l15.8-1.4v7.7l-7.4.6v15.1l6.5-.6v7.8l-6.5.6v17.8l7.9-.7v7.7l-16.3,1.4h0Z"/>
        <path class="cls-1" d="M177.5,56.6v-7.7l7.7-.7v7.7l-7.7.7Z"/>
        <path class="cls-2" d="M177.5,46.9V.7L185.2,0v46.3l-7.7.7Z"/>
      </g>
    </g>
  </g>
</svg>