<svg xmlns="http://www.w3.org/2000/svg" viewBox="0 0 100 100" fill="none">
  <rect width="100" height="100" rx="10" fill="#111111"/>
  <path d="M39 25C39 22.7909 40.7909 21 43 21H82C84.2091 21 86 22.7909 86 25V25C86 27.2091 84.2091 29 82 29H43C40.7909 29 39 27.2091 39 25V25Z" fill="currentColor"/>
  <path d="M15 50C15 47.7909 16.7909 46 19 46H82C84.2091 46 86 47.7909 86 50V50C86 52.2091 84.2091 54 82 54H19C16.7909 54 15 52.2091 15 50V50Z" fill="currentColor"/>
  <path d="M15 75C15 72.7909 16.7909 71 19 71H58C60.2091 71 62 72.7909 62 75V75C62 77.2091 60.2091 79 58 79H19C16.7909 79 15 77.2091 15 75V75Z" fill="currentColor"/>
  <path d="M67 75C67 72.7909 68.7909 71 71 71H82C84.2091 71 86 72.7909 86 75V75C86 77.2091 84.2091 79 82 79H71C68.7909 79 67 77.2091 67 75V75Z" fill="#d02b31"/>
</svg>