<?xml version="1.0" encoding="UTF-8"?><svg id="Layer_2" xmlns="http://www.w3.org/2000/svg" xmlns:xlink="http://www.w3.org/1999/xlink" viewBox="0 0 185.17 71.69"><defs><style>.cls-1{fill:#0a0a0a;}.cls-2{fill:#cd2026;opacity:.95;}.cls-3{fill:url(#linear-gradient);}</style><linearGradient id="linear-gradient" x1="181.34" y1="4.1" x2="181.34" y2="50.37" gradientTransform="translate(0 12.1) rotate(-5) skewX(-4.96)" gradientUnits="userSpaceOnUse"><stop offset="0" stop-color="#231f20" stop-opacity="0"/><stop offset=".38" stop-color="#231f20" stop-opacity=".09"/><stop offset=".68" stop-color="#231f20" stop-opacity=".38"/><stop offset=".96" stop-color="#231f20" stop-opacity=".86"/><stop offset="1" stop-color="#231f20" stop-opacity=".95"/></linearGradient></defs><g id="Layer_1-2"><path class="cls-1" d="M12.89,31.58v-6.49c0-1.6-.76-2.38-2.11-2.26-1.43.13-2.11,1.11-2.11,2.38v4.89c0,3.12.25,3.94,1.77,5.49,2.95,3.11,6.74,5.39,8.84,7.99,1.6,2.05,2.36,4.17,2.36,8.72v7.5c0,7.08-3.29,11.15-10.87,11.82S0,68.85,0,61.6v-6.23l8.09-.71v6.91c0,1.52.84,2.37,2.36,2.24s2.19-1.12,2.19-2.63v-6.15c0-4.13-.59-5.09-2.27-6.79-2.7-2.71-5.9-4.96-7.83-8.16-1.52-2.48-2.27-5.02-2.27-9.66v-4.72c0-6.32,3.62-10.17,10.36-10.76,7.58-.66,10.28,3.57,10.28,10.47v5.47l-8,.7Z"/><path class="cls-1" d="M44.47,57.71c0,7.33-3.71,11.28-10.28,11.85s-10.45-3.05-10.45-10.12V24.99c0-7.08,3.79-11.54,10.36-12.11s10.36,3.31,10.36,10.47v34.37ZM36.05,23.16c0-1.69-.67-2.47-1.94-2.36s-1.85,1.01-1.85,2.69v35.88c0,1.69.59,2.48,1.85,2.36s1.94-1.01,1.94-2.7V23.16Z"/><path class="cls-1" d="M59.05,66.97l-4.89-38.41-.34.03c.25,4.19.34,9.15.34,20.86v17.94l-7.33.64V12.1l11.37-.99,3.45,35.67.34-.03c-.17-5.29-.34-10.42-.34-23.47v-12.47l7.41-.65v55.93l-10.02.88Z"/><path class="cls-1" d="M86.42,64.57l-.34-2.16-.34.03c-.76,1.33-1.94,2.78-5.14,3.06-5.64.49-9.01-3.26-9.01-10.25V20.8c0-7.08,3.54-11.51,10.11-12.09s10.19,3.32,10.19,10.48v6.23l-8,.7v-7.16c0-1.69-.67-2.47-1.94-2.36s-1.85,1.01-1.85,2.69v35.88c0,1.69.59,2.48,1.85,2.36s1.94-1.01,1.94-2.7v-11.29l-2.44.21v-7.58l10.45-.91v28.81l-5.48.48Z"/><path class="cls-1" d="M93.9,63.92V7.99l16.17-1.42v7.67l-7.58.66v15.84l6.15-.54v7.67l-6.15.54v24.77l-8.59.75Z"/><path class="cls-1" d="M124.22,5.33l8.51-.74v45.32c0,7.08-3.54,11.35-10.28,11.94s-10.36-2.72-10.36-10.05V6.39l8.34-.73v45.99c0,1.69.67,2.47,1.94,2.36s1.85-1,1.85-2.69V5.33Z"/><path class="cls-1" d="M147.97,19.77v-6.49c0-1.6-.76-2.38-2.11-2.26-1.43.13-2.11,1.11-2.11,2.38v4.89c0,3.12.25,3.94,1.77,5.49,2.95,3.11,6.74,5.39,8.84,7.99,1.6,2.05,2.36,4.17,2.36,8.72v7.5c0,7.08-3.29,11.15-10.87,11.82s-10.78-2.76-10.78-10.01v-6.23l8.09-.71v6.91c0,1.52.84,2.37,2.36,2.24s2.19-1.12,2.19-2.63v-6.15c0-4.13-.59-5.09-2.27-6.79-2.7-2.71-5.9-4.96-7.83-8.16-1.52-2.48-2.27-5.02-2.27-9.66v-4.72c0-6.32,3.62-10.17,10.36-10.76,7.58-.66,10.28,3.57,10.28,10.47v5.47l-8,.7Z"/><path class="cls-1" d="M159.09,58.22V2.28l15.84-1.39v7.67l-7.41.65v15.08l6.49-.57v7.75l-6.49.57v17.77l7.92-.69v7.67l-16.34,1.43Z"/><path class="cls-2" d="M177.51,56.6v-7.67l7.66-.67v7.67l-7.66.67Z"/><path class="cls-3" d="M177.51,46.94V.67l7.66-.67v46.27l-7.66.67Z"/></g></svg>