<svg xmlns="http://www.w3.org/2000/svg" viewBox="0 0 390 390" fill="none">
  <path d="M100.89 155.47C100.89 136.75 107.45 122.29 120.57 112.1C133.69 101.91 151.8 96.81 174.9 96.81C185.09 96.81 194.85 97.93 204.17 100.17C213.49 102.41 221.55 105.87 228.37 110.55C235.19 115.23 240.54 121.5 244.42 129.35C248.3 137.2 250.24 146.48 250.24 157.2V254.59H219.42V239.9H218.58C214.56 245.72 208.84 250.4 201.42 253.93C194 257.46 184.93 259.23 174.19 259.23C167.29 259.23 160.71 258.38 154.45 256.68C148.19 254.98 142.61 252.27 137.71 248.56C132.81 244.85 128.93 240.11 126.07 234.32C123.21 228.53 121.78 221.76 121.78 213.99C121.78 202.45 124.96 193.32 131.33 186.62C137.7 179.92 145.96 175.02 156.1 171.91C166.25 168.8 177.33 166.83 189.35 165.99C201.37 165.15 213.19 164.73 224.78 164.73V159.81C224.78 150.11 221.55 142.94 215.07 138.28C208.59 133.62 200.35 131.29 190.36 131.29C175.79 131.29 165.59 137.76 159.77 150.71L129.05 141.87C132.45 131.13 139.23 122.77 149.39 116.78C159.55 110.79 173.07 107.8 189.94 107.8C200.97 107.8 210.97 109.35 219.93 112.44C228.9 115.53 236.24 120.31 241.96 126.78C247.69 133.25 251.53 141.3 253.48 150.92C255.43 160.54 256.41 171.65 256.41 184.23V254.59H100.89V155.47ZM188.27 248.24C198.94 248.24 208.05 245.6 215.58 240.32C223.11 235.04 226.88 227.94 226.88 219.01V174.47C220.05 174.47 212.87 174.68 205.34 175.09C197.81 175.5 190.89 176.35 184.56 177.64C178.24 178.93 173.01 180.91 168.9 183.57C164.79 186.23 162.73 190.03 162.73 194.96C162.73 198.9 163.53 202.14 165.13 204.68C166.73 207.22 168.78 209.2 171.28 210.61C173.78 212.02 176.56 213.01 179.63 213.57C182.7 214.13 185.78 214.42 188.88 214.42C193.83 214.42 198.25 213.99 202.14 213.14C206.03 212.3 209.28 211.08 211.91 209.5C214.54 207.92 216.52 206.13 217.84 204.13C219.17 202.13 220.05 200.13 220.48 198.13H221.32C221.32 213.51 210.3 221.2 188.27 221.2V248.24Z" fill="currentColor"/>
  <path d="M120.14 272.19H156.79V302.18H120.14V378.65H82.56V302.18H56V272.19H82.56V265.6C82.56 256.32 83.85 248.4 86.42 241.83C88.99 235.26 92.46 229.82 96.82 225.5C101.18 221.18 106.34 218 112.3 215.95C118.26 213.9 124.6 212.87 131.33 212.87C136.74 212.87 141.91 213.39 146.85 214.43C151.79 215.47 155.58 216.35 158.23 217.07L149.91 246.63C148.79 246.21 147.02 245.73 144.59 245.18C142.16 244.63 139.14 244.36 135.53 244.36C128.8 244.36 123.91 246.1 120.87 249.6C117.83 253.1 116.31 258.46 116.31 265.68V272.19H120.14ZM282.02 211.01V240.78H260.52V378.65H222.94V240.78H192V211.01H222.94V184.02H260.52V211.01H282.02ZM390 309.01V378.65H352.42V310.89C352.42 306.28 352.17 302.21 351.67 298.68C351.17 295.15 350.1 292.16 348.46 289.71C346.82 287.26 344.51 285.39 341.54 284.1C338.57 282.81 334.76 282.16 330.11 282.16C320.76 282.16 314.31 284.93 310.76 290.48C307.21 296.03 305.43 303.88 305.43 314.03V378.65H267.86V211.01H303.51V228.87H304.34C307.59 222.6 312.59 217.57 319.34 213.8C326.09 210.03 334.13 208.15 343.48 208.15C352.41 208.15 359.83 209.9 365.74 213.4C371.65 216.9 376.24 221.51 379.51 227.25C382.78 232.99 385 239.5 386.19 246.78C387.38 254.06 388.1 259.15 388.35 262.04C388.6 264.93 389 283.37 389 309.01H390Z" fill="currentColor"/>
  <path d="M336.78 175.61V175.44H306.06V175.61V254.59H336.78V175.61Z" fill="#d02b31"/>
</svg>