<svg width="1200" height="630" viewBox="0 0 1200 630" xmlns="http://www.w3.org/2000/svg">
  <!-- Background -->
  <rect width="1200" height="630" fill="#000000"/>
  
  <!-- Subtle gradient overlay -->
  <defs>
    <linearGradient id="bgGradient" x1="0%" y1="0%" x2="100%" y2="100%">
      <stop offset="0%" style="stop-color:#0a0a0a;stop-opacity:1" />
      <stop offset="50%" style="stop-color:#1a1a1a;stop-opacity:1" />
      <stop offset="100%" style="stop-color:#000000;stop-opacity:1" />
    </linearGradient>
    <linearGradient id="redGradient" x1="0%" y1="0%" x2="100%" y2="0%">
      <stop offset="0%" style="stop-color:#d02b31;stop-opacity:1" />
      <stop offset="100%" style="stop-color:#ff4444;stop-opacity:1" />
    </linearGradient>
  </defs>
  
  <!-- Background with gradient -->
  <rect width="1200" height="630" fill="url(#bgGradient)"/>
  
  <!-- Decorative elements -->
  <circle cx="100" cy="100" r="2" fill="#d02b31" opacity="0.3"/>
  <circle cx="1100" cy="150" r="3" fill="#d02b31" opacity="0.2"/>
  <circle cx="200" cy="500" r="1.5" fill="#d02b31" opacity="0.4"/>
  <circle cx="1000" cy="480" r="2.5" fill="#d02b31" opacity="0.3"/>
  
  <!-- Music note decorations -->
  <g transform="translate(50, 50)" opacity="0.1">
    <path d="M12 3l0 10.07c-.1-.07-.2-.14-.3-.2c-1.4-.9-3.2-.9-4.6 0c-1.4.9-1.4 2.3 0 3.2c1.4.9 3.2.9 4.6 0c.1-.06.2-.13.3-.2L12 16V8.5l6-2v4.57c-.1-.07-.2-.14-.3-.2c-1.4-.9-3.2-.9-4.6 0c-1.4.9-1.4 2.3 0 3.2c1.4.9 3.2.9 4.6 0c.1-.06.2-.13.3-.2L18 15V3l-6 2v-2z" fill="#d02b31" stroke="none"/>
  </g>
  
  <g transform="translate(1050, 400)" opacity="0.1">
    <path d="M12 3l0 10.07c-.1-.07-.2-.14-.3-.2c-1.4-.9-3.2-.9-4.6 0c-1.4.9-1.4 2.3 0 3.2c1.4.9 3.2.9 4.6 0c.1-.06.2-.13.3-.2L12 16V8.5l6-2v4.57c-.1-.07-.2-.14-.3-.2c-1.4-.9-3.2-.9-4.6 0c-1.4.9-1.4 2.3 0 3.2c1.4.9 3.2.9 4.6 0c.1-.06.2-.13.3-.2L18 15V3l-6 2v-2z" fill="#d02b31" stroke="none"/>
  </g>
  
  <!-- SongFuse Logo -->
  <g transform="translate(100, 200)">
    <!-- Simplified SongFuse icon -->
    <circle cx="40" cy="40" r="35" fill="#d02b31"/>
    <rect x="25" y="25" width="30" height="30" fill="white" rx="4"/>
    <path d="M40 35v10M35 40h10" stroke="#d02b31" stroke-width="2" stroke-linecap="round"/>
  </g>
  
  <!-- Main Text -->
  <text x="200" y="250" font-family="Arial, sans-serif" font-size="72" font-weight="bold" fill="white">
    SongFuse
  </text>
  
  <!-- Subtitle -->
  <text x="200" y="320" font-family="Arial, sans-serif" font-size="36" fill="#d02b31">
    AI-Powered Music Discovery
  </text>
  
  <!-- Description -->
  <text x="200" y="380" font-family="Arial, sans-serif" font-size="24" fill="#cccccc">
    Create personalized playlists with AI that understands your music taste
  </text>
  
  <!-- Key Features -->
  <g transform="translate(200, 450)">
    <text x="0" y="0" font-family="Arial, sans-serif" font-size="18" fill="#ffffff" opacity="0.9">
      ✨ AI-Generated Playlists
    </text>
    <text x="250" y="0" font-family="Arial, sans-serif" font-size="18" fill="#ffffff" opacity="0.9">
      🎵 Smart Music Matching
    </text>
    <text x="500" y="0" font-family="Arial, sans-serif" font-size="18" fill="#ffffff" opacity="0.9">
      🔗 Social Sharing
    </text>
  </g>
  
  <!-- Call to Action -->
  <rect x="200" y="520" width="180" height="50" rx="25" fill="url(#redGradient)"/>
  <text x="290" y="550" font-family="Arial, sans-serif" font-size="18" font-weight="bold" fill="white" text-anchor="middle">
    Start Creating
  </text>
  
  <!-- Website URL -->
  <text x="1050" y="600" font-family="Arial, sans-serif" font-size="16" fill="#888888" text-anchor="end">
    songfuse.app
  </text>
</svg>